<?xml version="1.0" encoding="utf-8"?>
<!-- Generator: Adobe Illustrator 15.0.0, SVG Export Plug-In . SVG Version: 6.00 Build 0)  -->
<!DOCTYPE svg PUBLIC "-//W3C//DTD SVG 1.1//EN" "http://www.w3.org/Graphics/SVG/1.1/DTD/svg11.dtd">
<svg version="1.1" id="Layer_1" xmlns="http://www.w3.org/2000/svg" xmlns:xlink="http://www.w3.org/1999/xlink" x="0px" y="0px"
	 width="245px" height="45px" viewBox="0 0 245 45" enable-background="new 0 0 245 45" xml:space="preserve">
<g>
	<path fill="#9D9D9C" d="M104.429,38.836l0.042,0.082c-0.019,1.967-0.536,3.469-1.551,4.506c-1.015,1.039-2.413,1.559-4.194,1.559
		c-1.855,0-3.327-0.656-4.416-1.967s-1.633-3.18-1.633-5.605v-5.58c0-2.408,0.546-4.275,1.64-5.6s2.563-1.986,4.409-1.986
		c1.8,0,3.202,0.508,4.208,1.523c1.006,1.016,1.518,2.527,1.537,4.541l-0.042,0.082h-1.537c-0.046-1.596-0.416-2.775-1.107-3.537
		c-0.692-0.762-1.712-1.143-3.06-1.143c-1.384,0-2.464,0.523-3.239,1.568c-0.775,1.043-1.163,2.551-1.163,4.52v5.629
		c0,2.006,0.388,3.531,1.163,4.576c0.775,1.043,1.855,1.566,3.239,1.566c1.347,0,2.367-0.375,3.06-1.121
		c0.692-0.748,1.061-1.953,1.107-3.613H104.429z"/>
	<path fill="#9D9D9C" d="M119.677,37.451c0,2.445-0.57,4.313-1.71,5.6c-1.14,1.287-2.702,1.932-4.686,1.932
		c-1.948,0-3.477-0.645-4.589-1.932s-1.668-3.154-1.668-5.6v-5.648c0-2.445,0.554-4.316,1.661-5.613s2.635-1.945,4.582-1.945
		c1.984,0,3.548,0.65,4.693,1.951c1.145,1.303,1.717,3.172,1.717,5.607V37.451z M118.03,31.762c0-1.994-0.411-3.494-1.232-4.5
		c-0.822-1.006-1.999-1.508-3.53-1.508c-1.486,0-2.625,0.502-3.419,1.508c-0.794,1.006-1.191,2.506-1.191,4.5v5.689
		c0,2.021,0.397,3.535,1.191,4.541c0.793,1.006,1.938,1.508,3.433,1.508c1.532,0,2.706-0.502,3.523-1.508s1.225-2.52,1.225-4.541
		V31.762z"/>
	<path fill="#9D9D9C" d="M124.821,43.279h8.14v1.412h-9.815V24.535h1.676V43.279z"/>
	<path fill="#9D9D9C" d="M138.096,43.279h8.14v1.412h-9.814V24.535h1.675V43.279z"/>
	<path fill="#9D9D9C" d="M159.133,34.945h-7.918v8.334h9.095v1.412h-10.756V24.535h10.673v1.467h-9.012v7.531h7.918V34.945z"/>
	<path fill="#9D9D9C" d="M174.982,38.836l0.042,0.082c-0.019,1.967-0.535,3.469-1.551,4.506c-1.015,1.039-2.413,1.559-4.194,1.559
		c-1.854,0-3.327-0.656-4.416-1.967s-1.634-3.18-1.634-5.605v-5.58c0-2.408,0.547-4.275,1.641-5.6s2.563-1.986,4.409-1.986
		c1.8,0,3.202,0.508,4.208,1.523s1.519,2.527,1.537,4.541l-0.042,0.082h-1.536c-0.047-1.596-0.415-2.775-1.107-3.537
		s-1.712-1.143-3.06-1.143c-1.385,0-2.464,0.523-3.239,1.568c-0.775,1.043-1.163,2.551-1.163,4.52v5.629
		c0,2.006,0.388,3.531,1.163,4.576c0.775,1.043,1.854,1.566,3.239,1.566c1.348,0,2.367-0.375,3.06-1.121
		c0.692-0.748,1.061-1.953,1.107-3.613H174.982z"/>
	<path fill="#9D9D9C" d="M188.927,26.002h-5.634v18.689h-1.661V26.002h-5.62v-1.467h12.915V26.002z"/>
	<path fill="#9D9D9C" d="M193.718,44.691h-1.675V24.535h1.675V44.691z"/>
	<path fill="#9D9D9C" d="M211.023,37.451c0,2.445-0.57,4.313-1.71,5.6s-2.701,1.932-4.686,1.932c-1.947,0-3.478-0.645-4.589-1.932
		c-1.112-1.287-1.669-3.154-1.669-5.6v-5.648c0-2.445,0.554-4.316,1.662-5.613c1.107-1.297,2.635-1.945,4.582-1.945
		c1.983,0,3.548,0.65,4.692,1.951c1.145,1.303,1.717,3.172,1.717,5.607V37.451z M209.376,31.762c0-1.994-0.411-3.494-1.232-4.5
		s-1.998-1.508-3.529-1.508c-1.486,0-2.626,0.502-3.42,1.508s-1.19,2.506-1.19,4.5v5.689c0,2.021,0.396,3.535,1.19,4.541
		s1.938,1.508,3.434,1.508c1.531,0,2.706-0.502,3.522-1.508c0.817-1.006,1.226-2.52,1.226-4.541V31.762z"/>
	<path fill="#9D9D9C" d="M227.562,44.691H225.9l-8.998-16.875l-0.083,0.014v16.861h-1.675V24.535h1.675l8.998,16.875l0.083-0.014
		V24.535h1.661V44.691z"/>
	<path fill="#9D9D9C" d="M242.311,39.764c0-1.102-0.321-1.998-0.962-2.688c-0.642-0.689-1.771-1.299-3.385-1.826
		c-1.837-0.563-3.229-1.289-4.174-2.18c-0.946-0.891-1.419-2.084-1.419-3.58c0-1.541,0.528-2.801,1.585-3.779
		c1.057-0.977,2.42-1.467,4.091-1.467c1.753,0,3.163,0.576,4.229,1.73c1.066,1.154,1.585,2.561,1.558,4.223l-0.041,0.082h-1.564
		c0-1.338-0.372-2.434-1.114-3.287c-0.743-0.854-1.766-1.281-3.066-1.281c-1.265,0-2.248,0.355-2.949,1.066
		s-1.052,1.602-1.052,2.672c0,0.996,0.339,1.834,1.018,2.514c0.679,0.678,1.829,1.271,3.454,1.777
		c1.79,0.555,3.149,1.305,4.076,2.25c0.928,0.945,1.392,2.189,1.392,3.73c0,1.615-0.547,2.896-1.641,3.842
		c-1.094,0.947-2.498,1.42-4.215,1.42c-1.689,0-3.159-0.508-4.409-1.523c-1.251-1.016-1.853-2.486-1.807-4.416l0.027-0.084h1.551
		c0,1.58,0.454,2.742,1.363,3.49c0.909,0.746,2.001,1.121,3.274,1.121c1.255,0,2.266-0.348,3.031-1.043
		C241.928,41.834,242.311,40.912,242.311,39.764z"/>
</g>
<path fill="#055137" d="M29.048,12.179c3.883-0.324,7.727-0.29,11.429,1.016C53.591,4.448,63.369,1.963,72.33,1
	c-12.256,3.889-22.707,9.413-31.176,16.733C37.031,15.094,32.989,13.191,29.048,12.179"/>
<path fill="#055137" d="M10.896,32.084c0.226-0.967,0.773-2.902,0.773-3.869c0-1.703-1.161-1.797-1.838-1.844v-1.473
	c0.968,0.045,1.966,0.139,2.934,0.184c0.905-0.045,1.775-0.139,2.678-0.184v1.473c-0.839,0.23-1.291,0.832-1.807,1.891
	c-0.611,1.334-3.708,11.93-3.999,12.852l-1.418,4.285H6.896L1.738,29.182c-0.517-1.566-0.774-2.58-2.066-2.811v-1.473
	c1.388,0.045,2.743,0.139,4.131,0.184c1.352-0.045,2.74-0.139,4.093-0.184v1.473c-0.87,0.047-1.805,0.047-1.805,1.613
	c0,0.6,0.579,2.301,0.74,2.857l2.258,7.277L10.896,32.084z"/>
<path fill="#055137" d="M23.35,33.604c-1.613,1.016-3.742,2.258-3.742,5.205c0,1.477,0.419,3.133,1.581,3.133
	c0.968,0,2.161-1.336,2.161-2.854V33.604z M29.992,42.541c-0.677,1.797-2.515,2.857-3.87,2.857c-1.547,0-2.386-1.014-2.806-3.088
	c-1.16,1.75-2.869,3.088-4.545,3.088c-2.032,0-3.711-1.98-3.711-4.975c0-4.563,3.646-6.127,6.483-7.691
	c1-0.557,1.807-0.557,1.807-2.307c0-2.027-0.129-4.055-1.872-4.055c-1.225,0-1.58,0.736-2.031,2.305
	c-0.388,1.473-0.807,2.9-2.097,2.9c-0.999,0-1.741-1.012-1.741-2.488c0-3.912,4.224-4.561,6.225-4.561
	c2.771,0,5.74,1.016,5.74,5.715v9.352c0,0.783,0,2.348,0.677,2.348c0.516,0,0.742-0.229,1.096-0.643L29.992,42.541z"/>
<path fill="#055137" d="M36.305,27.283v11.48c0,1.795,0,3.658,1.161,3.658c0.806,0,1.451-0.709,1.902-1.586l1.096,1.064
	c-1.03,2.348-2.643,3.498-4.547,3.498c-3.16,0-3.836-2.627-3.836-6.635V27.295h-1.742v-1.523c2.349-1.051,3.934-3.361,4.579-6.725
	h1.388v6.266h3.257v1.971H36.305z"/>
<path fill="#055137" d="M58.893,36.229l-1.161,1.43v1.75c0,2.996-0.191,3.641,2.031,4.01v1.475
	c-1.289-0.049-2.545-0.143-3.836-0.188c-1.385,0.045-2.805,0.139-4.45,0.188v-1.475c2.289,0,2.033-1.66,2.033-4.283V20.707
	c0-2.537,0.129-3.919-2.063-4.148v-1.52l6.286-1.382v21.419l3.226-4.604c0.356-0.602,1.096-1.705,1.096-2.533
	c0-1.293-1.289-1.521-1.934-1.568v-1.473c1.256,0.045,2.547,0.139,3.804,0.184c1.064-0.045,2.162-0.139,3.224-0.184v1.473
	c-1.966,0.459-2.739,1.891-4.093,3.734l-1.55,2.115l4.386,8.156c0.55,1.059,1.225,2.717,2.192,3.041v1.475
	c-0.772-0.049-1.616-0.143-2.352-0.15c-0.827,0-1.581,0.102-2.389,0.15L58.893,36.229z"/>
<path fill="#055137" d="M77.415,33.604c-1.613,1.016-3.742,2.258-3.742,5.205c0,1.477,0.418,3.133,1.58,3.133
	c0.968,0,2.162-1.336,2.162-2.854V33.604z M84.059,42.541c-0.678,1.797-2.517,2.857-3.872,2.857c-1.547,0-2.386-1.014-2.807-3.088
	c-1.158,1.75-2.87,3.088-4.546,3.088c-2.031,0-3.708-1.98-3.708-4.975c0-4.563,3.644-6.127,6.481-7.691
	c1.001-0.557,1.809-0.557,1.809-2.307c0-2.027-0.131-4.055-1.874-4.055c-1.224,0-1.577,0.736-2.029,2.305
	c-0.39,1.473-0.808,2.9-2.097,2.9c-1.001,0-1.743-1.012-1.743-2.488c0-3.912,4.226-4.561,6.225-4.561
	c2.773,0,5.738,1.016,5.738,5.715v9.352c0,0.783,0,2.348,0.68,2.348c0.515,0,0.741-0.229,1.095-0.643L84.059,42.541z"/>
<path fill="#055137" d="M48.148,42.586c-0.323-0.596-0.323-2.67-0.323-3.451v-4.787v-0.822v-9.449l-6.288,1.381v1.523
	c2.193,0.23,2.062,1.613,2.062,4.145v2.4v5.609c0,0.781,0,2.855-0.32,3.451c-0.356,0.693-1.194,0.832-1.71,0.832v1.475
	c1.452-0.049,2.871-0.139,4.322-0.184c1.354,0.045,2.676,0.135,3.966,0.184v-1.475C49.342,43.418,48.501,43.279,48.148,42.586"/>
</svg>
